<svg width="60" height="60" fill="none" xmlns="http://www.w3.org/2000/svg"><path fill-rule="evenodd" clip-rule="evenodd" d="M51.887 36.575a.998.998 0 00-1.369.357l-11.462 19.55c-.828 1.433-2.667 1.926-4.055 1.126l-2.233-1.447a.999.999 0 10-1.087 1.678l2.276 1.475a4.972 4.972 0 002.492.668 4.998 4.998 0 004.335-2.494l11.459-19.545a1 1 0 00-.356-1.368zM59.912 5v16c0 3.094-.984 5.399-3.293 7.707l-29.698 29.74a4.968 4.968 0 01-3.537 1.464 4.958 4.958 0 01-3.534-1.464L1.465 40.063A4.969 4.969 0 010 36.526c0-1.336.52-2.591 1.465-3.535L27.439 7.052c-6.792-1.544-11.007-1.648-12.241-1.287.521.533 2.144 1.665 6.061 3.209a1 1 0 01-.733 1.861c-8.108-3.196-7.634-4.968-7.455-5.635.371-1.39 2.352-1.853 6.41-1.498 3.305.289 7.571 1.104 12.012 2.293 4.441 1.19 8.541 2.617 11.547 4.02 3.695 1.723 5.176 3.112 4.803 4.503-.36 1.342-2.231 1.506-2.846 1.56a1 1 0 01-.174-1.992c.426-.037.709-.095.892-.147-.428-.447-1.511-1.144-3.243-1.974a3.993 3.993 0 00-.56 2.035c0 2.206 1.794 4 4 4s4-1.794 4-4-1.794-4-4-4a1 1 0 110-2c3.309 0 6 2.691 6 6s-2.691 6-6 6-6-2.691-6-6c0-1.003.264-1.98.735-2.852-2.393-1.005-5.603-2.13-9.671-3.221-.429-.115-.842-.22-1.255-.325L2.879 34.406A2.977 2.977 0 002 36.526c0 .802.312 1.555.879 2.122l18.385 18.385c1.133 1.133 3.109 1.133 4.242 0l29.698-29.74c1.949-1.948 2.708-3.713 2.708-6.293V5c0-1.654-1.346-3-3-3h-16c-2.58 0-4.345.759-6.293 2.707a.999.999 0 11-1.414-1.414C33.513.984 35.818 0 38.912 0h16c2.757 0 5 2.243 5 5z" fill="#2C3E50"/><path d="M18.218 43.524a6.77 6.77 0 004.313 1.09 4.671 4.671 0 003.259-1.75 4.972 4.972 0 001.047-3.724l-.489-3.806 5.207-5.244c.724 1.511.48 3.375-.768 4.63a1.357 1.357 0 00.007 1.922 1.357 1.357 0 001.921-.007c2.311-2.328 2.585-5.923.832-8.553l1.055-1.063a1.357 1.357 0 00-.007-1.92 1.357 1.357 0 00-1.921.006l-1.058 1.065a6.775 6.775 0 00-4.313-1.089 4.672 4.672 0 00-3.258 1.75 4.973 4.973 0 00-1.05 3.725l.49 3.805-5.193 5.231c-.687-1.507-.445-3.409.755-4.617a1.357 1.357 0 10-1.929-1.914 6.746 6.746 0 00-1.973 4.81 6.748 6.748 0 001.14 3.742l-.842.848a1.355 1.355 0 00.007 1.921c.534.53 1.392.526 1.922-.007l.846-.85zm7.471-13.315a2.225 2.225 0 01.473-1.674c.351-.435.84-.701 1.377-.748a4.06 4.06 0 012.083.393l-3.712 3.739-.22-1.71zm-1.546 9.277a2.205 2.205 0 01-.47 1.672c-.352.436-.84.703-1.378.75a4.05 4.05 0 01-2.083-.395l3.71-3.738.221 1.712z" fill="#2C3E50"/></svg>