<svg width="60" height="60" fill="none" xmlns="http://www.w3.org/2000/svg"><path d="M1 31a1 1 0 001-1C2 14.561 14.561 2 30 2a27.84 27.84 0 0117.302 6H42a1 1 0 100 2h7.915a.958.958 0 00.193 0h.891V1a1 1 0 10-2 0v5.81A29.817 29.817 0 0030 0C13.458 0 0 13.458 0 30a1 1 0 001 1z" fill="#2C3E50"/><path d="M30 8C17.869 8 8 17.869 8 30s9.869 22 22 22 22-9.869 22-22S42.131 8 30 8zm0 42c-11.028 0-20-8.972-20-20s8.972-20 20-20 20 8.972 20 20-8.972 20-20 20z" fill="#2C3E50"/><path d="M30 15a1 1 0 001-1v-2a1 1 0 10-2 0v2a1 1 0 001 1zm0 30a1 1 0 00-1 1v2a1 1 0 102 0v-2a1 1 0 00-1-1zm16-14h2a1 1 0 100-2h-2a1 1 0 100 2zm-32-2h-2a1 1 0 100 2h2a1 1 0 100-2zm17-3.858V20a1 1 0 10-2 0v5.142c-1.72.447-3 1.999-3 3.858 0 .74.215 1.424.567 2.019l-8.274 8.274a.999.999 0 101.414 1.414l8.274-8.274A3.947 3.947 0 0030 33c2.206 0 4-1.794 4-4 0-1.859-1.28-3.411-3-3.858zM30 31c-1.103 0-2-.897-2-2s.897-2 2-2 2 .897 2 2-.897 2-2 2zM11.89 52.66a.995.995 0 00.8 1.589c.31 0 .61-.13.81-.4.32-.439.23-1.069-.21-1.399a.996.996 0 00-1.4.21zm-4.66-6.39c-.32-.439-.95-.55-1.4-.229a1.006 1.006 0 00.59 1.82 1.008 1.008 0 00.81-1.59zm.389 2.18c-.41.369-.45 1-.08 1.409.19.23.47.341.75.341.23 0 .47-.08.66-.25.41-.37.45-1 .08-1.41-.359-.42-.989-.45-1.41-.09zm3.441 2.15c-.4-.37-1.04-.34-1.41.061a1 1 0 00.73 1.68c.27 0 .54-.11.74-.32a.996.996 0 00-.06-1.41V50.6zm-5.39-6.76h-.01a.988.988 0 00-1.36-.37.997.997 0 00.5 1.86 1 1 0 00.87-1.49zm53.27-11.72h.04c.54 0 .98-.431 1-.96a.996.996 0 00-.96-1.04c-.55-.021-1.02.41-1.04.96-.02.55.409 1.02.96 1.04zM1.26 33.99a1.001 1.001 0 00-.21-1.991.99.99 0 00-.89 1.09c.05.52.49.9.99.9l.11.001zm.56 2.94c.54-.11.89-.64.77-1.18a.988.988 0 00-1.18-.771.989.989 0 00-.77 1.181c.09.47.51.79.97.79.069 0 .14 0 .21-.02zm2.54 4.32c-.22-.5-.81-.73-1.32-.51-.5.22-.73.81-.51 1.319.17.37.53.601.92.601.13 0 .27-.03.4-.091.499-.219.729-.809.51-1.319zm-1.031-2.7a.988.988 0 00-1.25-.65 1 1 0 00-.65 1.261c.14.42.53.689.95.689.1 0 .21-.01.31-.04.521-.17.811-.741.64-1.26zM29.46 57.99c-.55-.011-1.01.43-1.02.979a.998.998 0 00.98 1.02h.02c.55 0 .99-.43 1-.98.009-.55-.43-1.01-.98-1.02zm22.67-10.85a1 1 0 00.17 1.4c.19.14.4.21.62.21.29 0 .59-.13.79-.391a.992.992 0 00-.18-1.399.993.993 0 00-1.4.18zm-6.301 5.94a.996.996 0 00-.25 1.39c.19.28.5.43.82.43a1 1 0 00.57-.17c.45-.31.57-.939.25-1.39a.997.997 0 00-1.39-.26zm2.301-1.761a.999.999 0 00.65 1.761.999.999 0 00.76-1.65 1 1 0 00-1.41-.111zm7.029-6.88c-.47-.29-1.09-.14-1.38.32-.29.47-.15 1.09.32 1.38.17.101.35.15.53.15a1 1 0 00.53-1.85zM50.24 49.33a.987.987 0 00.03 1.41.97.97 0 00.69.279c.26 0 .53-.1.72-.31a.996.996 0 10-1.44-1.379zm8.609-16.22a1.01 1.01 0 00-1.13.85c-.08.55.3 1.05.85 1.13.05.01.1.01.14.01a1 1 0 00.14-1.99zm-.469 2.959c-.54-.13-1.08.2-1.22.73-.13.54.2 1.08.73 1.22a1.003 1.003 0 001.21-.73 1.005 1.005 0 00-.72-1.22zM15.699 54.06a.996.996 0 00-1.37.351.995.995 0 101.71 1.02.997.997 0 00-.34-1.371zm41.9-15.09a.995.995 0 00-1.28.6.992.992 0 00.93 1.341c.41 0 .8-.25.94-.66a.992.992 0 00-.59-1.281zm-1.079 2.8c-.49-.239-1.1-.04-1.34.46s-.03 1.101.46 1.34a1.004 1.004 0 001.34-.46 1 1 0 00-.46-1.34zM26.57 57.79a.992.992 0 00-1.11.87c-.07.55.32 1.05.87 1.109v.011h.12c.5 0 .93-.37.99-.881a.992.992 0 00-.87-1.109zm-5.63-1.29a.993.993 0 00-1.27.62c-.18.52.1 1.09.62 1.27.11.03.22.05.33.05a.997.997 0 00.32-1.94zm2.78.79c-.54-.12-1.07.21-1.2.75-.12.54.22 1.08.75 1.2.08.02.15.02.23.02.45 0 .87-.31.97-.77a.993.993 0 00-.75-1.2zm-5.46-1.87a.99.99 0 00-1.33.479c-.23.5-.02 1.101.48 1.33.14.061.28.09.42.09.38 0 .74-.21.91-.579a.99.99 0 00-.48-1.32zm16.96 2.09c-.54.1-.9.63-.8 1.17.09.48.52.81.99.81.06 0 .12 0 .18-.01.54-.11.9-.63.8-1.17a1 1 0 00-1.17-.8zm2.81-.68a.987.987 0 00-.67 1.239 1.005 1.005 0 001.25.671c.53-.16.83-.721.67-1.25-.16-.52-.72-.82-1.25-.66zm2.73-.98c-.51.21-.75.8-.54 1.311.16.38.53.609.92.609.13 0 .26-.02.39-.069.51-.221.75-.801.54-1.311-.221-.51-.8-.75-1.31-.54zm-8.411 2.05a.998.998 0 00-.91 1.08c.04.52.48.92 1 .92h.08v-.01c.55-.04.96-.52.91-1.07a1.007 1.007 0 00-1.08-.92zm11.02-3.3c-.49.26-.67.87-.4 1.35.18.34.52.53.88.53.16 0 .32-.04.47-.13.49-.26.67-.87.4-1.35a.983.983 0 00-1.35-.4z" fill="#2C3E50"/></svg>