<svg width="63" height="63" fill="none" xmlns="http://www.w3.org/2000/svg"><path d="M4.949 26.369a6.993 6.993 0 00-.02 9.878 6.993 6.993 0 009.878.019c9.14-9.103 23.981-9.074 33.085.065a6.993 6.993 0 009.878.02 6.993 6.993 0 00.02-9.879C43.25 11.875 19.545 11.83 4.948 26.37zm51.722 8.878a5.434 5.434 0 01-7.676-.015c-9.71-9.748-25.539-9.779-35.286-.07a5.434 5.434 0 01-7.676-.014 5.434 5.434 0 01.015-7.676c13.988-13.934 36.704-13.89 50.638.1a5.434 5.434 0 01-.015 7.675z" fill="#2C3E50"/><path d="M16.713 41.648a4.507 4.507 0 00-.013 6.367 4.507 4.507 0 006.367.012c4.546-4.527 11.927-4.513 16.455.032a4.507 4.507 0 006.366.013 4.507 4.507 0 00.013-6.367c-8.032-8.063-21.125-8.089-29.188-.057zm28.076 5.32a2.948 2.948 0 01-4.164-.008c-5.134-5.153-13.503-5.17-18.657-.036a2.948 2.948 0 01-4.164-.008 2.948 2.948 0 01.008-4.165c7.454-7.425 19.56-7.402 26.986.053a2.948 2.948 0 01-.009 4.164z" fill="#2C3E50"/><path d="M27.253 50.304a5.791 5.791 0 00-.016 8.18 5.791 5.791 0 008.181.017 5.791 5.791 0 00.016-8.18 5.791 5.791 0 00-8.18-.017zm7.066 7.094a4.232 4.232 0 01-5.978-.012 4.232 4.232 0 01.011-5.979 4.232 4.232 0 015.979.012 4.232 4.232 0 01-.012 5.979z" fill="#2C3E50"/></svg>