<svg width="17" height="12" fill="none" xmlns="http://www.w3.org/2000/svg"><path d="M10.53 9.737c-.068-.124-.114-.236-.114-.304 0-.034.012-.056.012-.079a.393.393 0 01.067-.101c.034-.034-.045-.203-.18-.361-.135-.17-.304-.248-.395-.158-.078.09-.157.192-.214.316a.863.863 0 00-.079.417c.012.282.124.485.215.654.157.27.338.473.44.642.056.08.09.147.09.237.01.09-.034.214-.102.327-.011.034.09.169.124.146a.777.777 0 00.395-.327c.056-.078.078-.191.1-.293a.844.844 0 00-.01-.293c-.057-.36-.237-.608-.35-.823zm-1.635 0c-.068-.124-.113-.236-.113-.304 0-.034.011-.056.011-.079a.391.391 0 01.068-.101c.034-.034-.045-.203-.18-.361-.136-.17-.305-.248-.395-.158-.08.09-.158.192-.214.316a.863.863 0 00-.08.417c.012.282.125.485.215.654.158.27.338.473.44.642.056.08.09.147.09.237.011.09-.034.214-.102.327-.011.034.09.169.124.146a.777.777 0 00.395-.327c.056-.078.079-.191.101-.293a.844.844 0 00-.011-.293c-.056-.36-.237-.608-.35-.823zm-1.635 0c-.068-.124-.113-.236-.113-.304 0-.034.011-.056.011-.079.012-.022.034-.068.068-.101.034-.034-.045-.203-.18-.361-.136-.17-.305-.248-.395-.158a1.28 1.28 0 00-.214.316.863.863 0 00-.079.417c.011.282.124.485.214.654.158.27.338.473.44.642.056.08.09.147.09.237.011.09-.034.214-.101.327-.012.034.09.169.124.146a.777.777 0 00.394-.327c.057-.078.08-.191.102-.293a.844.844 0 00-.012-.293c-.056-.36-.225-.608-.35-.823zM16.989.843c-.012-.068-.012-.136-.045-.203-.012-.034-.023-.09-.046-.124l-.067-.124a.46.46 0 00-.192-.136c-.034-.01-.079-.033-.113-.033C16.493.21 16.46.21 16.436.2a4.001 4.001 0 00-.338-.045c-.225-.011-.44-.011-.654-.011-.428.011-.857.045-1.274.067l-.157.012h-.463L12.92.21 11.655.178C9.966.155 8.275.144 6.584.12L4.047.1H2.784c-.18-.012-.405-.034-.62-.045C1.95.03 1.736.02 1.522.008a6.991 6.991 0 00-.688 0C.8.008.778.008.744.02.71.02.688.03.643.03.54.054.44.076.349.132.17.222.09.448.034.628.023.708.01.764.01.831a1.032 1.032 0 00-.011.18v.339l.034.654.056.631.011.147v.451c0 .428 0 .845.012 1.285.011.338.022.676.056 1.026s.102.71.248 1.082c.045.09.079.18.147.27l.09.136c.034.045.067.09.101.124.08.079.158.157.26.214a.65.65 0 00.146.09l.147.068c.406.146.778.146 1.127.146.35 0 .676-.022 1.003-.022.316-.012.654 0 .992 0H8.42c.316 0 .643.022.97.045l.992.067c1.33.08 2.671.147 4.035.068.643-.045 1.252-.169 1.669-.417.101-.056.192-.135.27-.203a.679.679 0 00.147-.237c.045-.158 0-.248-.045-.248-.056-.011-.113.045-.192.08a1.802 1.802 0 01-.383.112c-.35.068-.902.113-1.51.146a9.788 9.788 0 01-.576.023c.08-.282.18-.564.215-.89A.863.863 0 0014 5.903l-.022-.079-.034-.078a.43.43 0 00-.101-.147c-.17-.18-.361-.237-.542-.282-.18-.045-.36-.067-.518-.09-.17-.023-.338-.034-.496-.045a30.538 30.538 0 00-1.004-.057c-.665-.022-1.33-.01-1.984-.01-.653 0-1.307-.012-1.961-.035-.8-.022-1.612-.045-2.435-.022a206 206 0 01-.62.034c-.214.022-.44.033-.7.124a1.596 1.596 0 00-.202.09c-.068.045-.147.09-.203.158-.034.034-.056.067-.09.112-.023.046-.045.08-.068.124a.55.55 0 00-.045.124c-.011.046-.022.08-.022.124-.034.305.01.519.056.733.022.09.045.158.068.237l-.654.022c-.316 0-.62-.01-.846-.101-.214-.079-.36-.225-.462-.473C.913 5.859.891 5.194.868 4.54.857 4.123.857 3.706.857 3.278v-.699L.8 1.947a5.664 5.664 0 01-.033-.608v-.293c0-.046 0-.09.01-.136C.778.865.79.82.79.798V.786C.812.786.868.775.902.775a5.08 5.08 0 01.586 0l.62.034c.214.011.417.034.654.045L4.047.843 6.584.809C8.274.786 9.966.775 11.656.752L12.92.73l.631-.011h.486l.157-.012c.428-.033.846-.079 1.251-.101.203-.011.417-.023.609-.011.101 0 .203.01.282.022.022 0 .045.011.056.011.012 0 .023 0 .034.012a.2.2 0 01.056.034c.023.022.023.045.034.078L16.55.9l.034.338c.011.237 0 .474-.011.71-.012.237-.034.474-.046.722-.01.237-.045.473-.045.733.012.958.023 1.916-.101 2.874-.079.553.09.598.192.034.169-.958.203-1.928.225-2.897.011-.225.045-.462.068-.71.022-.237.056-.485.079-.722.022-.248.034-.484.034-.744a1.16 1.16 0 00.01-.394zM3.72 6.04c.011-.045.011-.057.023-.068 0-.011.022-.011.034-.023.022-.01.033-.022.067-.033a1.81 1.81 0 01.485-.08l.586-.033c.79-.023 1.59 0 2.39.022.665.023 1.33.023 1.995-.01.666-.023 1.32-.068 1.973-.091l.981-.034c.316 0 .665-.011.947.023.146.022.282.056.35.112.067.057.1.17.112.316 0 .282-.056.598-.101.913-1.037.023-2.097-.034-3.146-.09l-.992-.056a14.613 14.613 0 00-1.014-.045H3.777a1.304 1.304 0 00-.012-.361c-.034-.18-.067-.36-.045-.462z" fill="#2C3E50"/><path d="M8.162 3.762H6.538c-.124 0-.236.17-.236.384s.101.383.237.383h1.623c.88 0 1.77-.101 2.638-.293.056-.011.056-.18 0-.203a13.9 13.9 0 00-2.638-.27z" fill="#2C3E50"/></svg>