<svg width="19" height="15" fill="none" xmlns="http://www.w3.org/2000/svg"><path d="M1.525.613c-.797 0-1.45.652-1.45 1.45v10.875c0 .797.653 1.45 1.45 1.45h15.95c.797 0 1.45-.653 1.45-1.45V2.063c0-.798-.653-1.45-1.45-1.45H1.525zm0 .725h15.95a.72.72 0 01.725.725v10.875a.72.72 0 01-.725.724H1.525a.72.72 0 01-.725-.724V2.063a.72.72 0 01.725-.725zm1.087 1.087c-.2 0-.362.163-.362.363v9.425a.365.365 0 00.18.318.366.366 0 00.365 0 .365.365 0 00.18-.318V3.15H15.3v9.063a.365.365 0 00.18.318.366.366 0 00.365 0 .365.365 0 00.18-.318V2.788c0-.2-.163-.363-.362-.363H2.612zm14.502 4.35a.725.725 0 10-.004 1.45.725.725 0 00.004-1.45zm-15.59.363a.362.362 0 100 .724.362.362 0 00.001-.724zm2.538 4.712a.363.363 0 000 .725.363.363 0 000-.725zm1.45 0a.363.363 0 000 .725.363.363 0 000-.725zm1.45 0a.363.363 0 000 .725.363.363 0 000-.725zm1.45 0a.363.363 0 000 .725.363.363 0 000-.725zm1.45 0a.363.363 0 000 .725.363.363 0 000-.725zm1.45 0a.363.363 0 000 .725.363.363 0 000-.725zm1.45 0a.363.363 0 000 .725.363.363 0 000-.725zm1.45 0a.363.363 0 000 .725.363.363 0 000-.725z" fill="#2C3E50"/></svg>