<svg width="15" height="21" fill="none" xmlns="http://www.w3.org/2000/svg"><path d="M7.5 21c.133 0 .25-.126.25-.27v-4.038h2.417c2.666 0 4.833-2.333 4.833-5.205 0-2.064-1.15-3.949-2.9-4.774.25-.61.4-1.292.4-1.957C12.5 2.136 10.517 0 8.083 0 5.65 0 3.667 2.136 3.667 4.756v.126C1.467 5.779 0 8.041 0 10.59c0 3.356 2.55 6.102 5.667 6.102H7.25v4.039c0 .143.117.269.25.269zm-1.833-4.846C2.817 16.154.5 13.659.5 10.59.5 8.203 1.917 6.085 4 5.313a.255.255 0 00.167-.27c0-.09-.017-.197-.017-.287C4.167 2.423 5.917.538 8.083.538 10.25.538 12 2.423 12 4.756a4.49 4.49 0 01-.45 1.975.322.322 0 00-.017.215.341.341 0 00.15.162c1.684.682 2.817 2.44 2.817 4.38 0 2.566-1.95 4.666-4.333 4.666H7.75v-1.777l3.2-1.723a.304.304 0 00.117-.36c-.067-.125-.217-.179-.334-.125L7.75 13.767V6.55c0-.143-.117-.269-.25-.269s-.25.126-.25.27v3.625L4.283 8.579c-.116-.071-.266-.017-.333.126a.268.268 0 00.117.36l3.183 1.722v5.367H5.667z" fill="#2C3E50"/></svg>