<svg width="16" height="16" fill="none" xmlns="http://www.w3.org/2000/svg"><path d="M8 14.055a.4.4 0 01-.27-.105L3.845 10.4h-1.5a.4.4 0 01-.4-.4V6a.4.4 0 01.4-.4h1.5L7.73 2.05a.4.4 0 01.67.295v11.31a.4.4 0 01-.4.4zM2.745 9.6H4a.4.4 0 01.27.105l3.33 3.04V3.252l-3.33 3.04A.4.4 0 014 6.4H2.745v3.2zm6.807.202a.4.4 0 01-.283-.682 1.586 1.586 0 000-2.24.4.4 0 01.565-.566 2.387 2.387 0 010 3.372.4.4 0 01-.282.116z" fill="#2C3E50"/><path d="M10.966 11.217a.4.4 0 01-.283-.683 3.584 3.584 0 000-5.068.4.4 0 11.566-.565 4.383 4.383 0 010 6.198.4.4 0 01-.283.118z" fill="#2C3E50"/><path d="M12.16 12.41a.4.4 0 01-.283-.682 5.273 5.273 0 000-7.456.4.4 0 11.565-.566 6.072 6.072 0 010 8.588.4.4 0 01-.282.116z" fill="#2C3E50"/><path stroke="#2C3E50" stroke-linecap="round" stroke-linejoin="round" d="M15.315 2.278v12.037"/></svg>