<svg width="56" height="57" fill="none" xmlns="http://www.w3.org/2000/svg"><path d="M54.133 26.557C52.885 10.897 38.902-.563 24.279 1.174 10.002 2.869-.12 16.402 1.1 30.512c1.238 14.304 13.874 25.87 28.27 24.943 22.492-1.581 25.26-23.401 24.938-24.338" stroke="#2C2C54" stroke-width="2" stroke-miterlimit="10" stroke-linecap="round" stroke-linejoin="round"/><path d="M14.762 39.59c1.29.556 21.77.292 23.03.246 2.717-.23 5.268-3.102 5.404-5.404.135-2.303.399-10.41-.062-12.344-.583-2.38-2.963-4.606-6.018-4.729-2.457-.153-20.435-.061-22.477.307-2.042.369-3.531 1.597-3.623 4.545-.092 2.948-.24 13.05.307 14.125" stroke="#2C2C54" stroke-width="2" stroke-miterlimit="10" stroke-linecap="round" stroke-linejoin="round"/><path d="M23.605 32.958c.216.976 8.597-3.562 8.598-4.79 0-1.229-8.359-4.943-8.905-4.176-.546.766-.233 6.646-.233 6.646" stroke="#2C2C54" stroke-width="2" stroke-miterlimit="10" stroke-linecap="round" stroke-linejoin="round"/></svg>