<svg width="57" height="56" fill="none" xmlns="http://www.w3.org/2000/svg"><path d="M23.898 44.038c.172-7.92-.15-15.372-.133-15.838.026-.663-4.368.274-4.91-.271-.542-.545-.853-4.694-.134-5.051.718-.358 3.958.29 4.642-.136.684-.427-2.968-14.249 12.014-11.194.41.205-.034 4.83-.273 5.187-.239.359-3.276-.46-4.914.82s-.956 4.811-.614 5.05c.341.24 5.204.051 5.528.41.325.359.376 4.846 0 5.188-.375.341-5.367-.622-5.87-.273-.414.287 1.09 15.478.66 16.08-.43.602-1.993.55-2.98.574" stroke="#2C2C54" stroke-width="2" stroke-miterlimit="10" stroke-linecap="round" stroke-linejoin="round"/><path d="M28.561 54.183c15.704-.425 27.881-13.788 26.914-28.481C54.531 11.355 41.548.536 27.394 1.015 13.044 1.501.832 13.512 1.002 27.937c.4 22.543 22.044 26.454 22.997 26.18" stroke="#2C2C54" stroke-width="2" stroke-miterlimit="10" stroke-linecap="round" stroke-linejoin="round"/></svg>