<svg width="57" height="56" fill="none" xmlns="http://www.w3.org/2000/svg"><path d="M41.172 26.87c.086 3.705.287 9.158-.157 10.698-.444 1.539-2.01 3-3.34 3.6-1.33.6-19.047.261-19.986 0-.94-.26-2.349-2.27-2.662-3-.313-.731-.156-18.578.21-20.065.364-1.488 1.643-2.349 2.817-2.87 1.174-.522 13.812-.314 16.125-.21 2.313.105 4.366 1.253 4.54 2.975.174 1.722-1.027 2.418-2.453 2.296-1.426-.122-2.378-1.471-1.563-2.501.815-1.03 5.372-1.282 5.998.049.627 1.33.652 4.543-.209 5.324-.86.781-6.496-.283-7.36.05-.864.332 3.421 3.68.623 8.818-1.834 2.956-5.846 4.337-9.035 2.66-3.499-1.84-4.036-6.316-2.831-9.188.15-.357 1.578-3.675 4.931-4.129 1.97-.267 5.74.587 4.436 1.761-1.304 1.174-11.898-.287-14.455.235" stroke="#2C2C54" stroke-width="2" stroke-miterlimit="10" stroke-linecap="round" stroke-linejoin="round"/><path d="M20.578 2.491C5.585 7.182-2.487 23.36 2.45 37.232c4.82 13.546 20.26 20.415 33.749 16.094 13.673-4.38 22.148-19.267 18.05-33.098C47.719-1.352 25.828.788 24.986 1.31" stroke="#2C2C54" stroke-width="2" stroke-miterlimit="10" stroke-linecap="round" stroke-linejoin="round"/></svg>