<svg width="144" height="122" fill="none" xmlns="http://www.w3.org/2000/svg"><path d="M20.684 64.104c2.736 0 4.992.516 6.768 1.548 1.776 1.008 3.072 2.352 3.888 4.032.816 1.656 1.224 3.468 1.224 5.436 0 2.4-.588 4.536-1.764 6.408a11.922 11.922 0 01-4.644 4.356c-1.92 1.032-4.008 1.548-6.264 1.548-.984 0-2.124-.096-3.42-.288-1.272-.192-2.244-.42-2.916-.684-.192-.096-.324-.192-.396-.288-.072-.12-.12-.312-.144-.576l-.468-5.004c0-.072.06-.108.18-.108.144-.024.228 0 .252.072.744 1.8 1.86 3.24 3.348 4.32 1.512 1.08 3.132 1.62 4.86 1.62 2.232 0 3.924-.936 5.076-2.808 1.176-1.872 1.764-4.392 1.764-7.56v-.252h-4.212c-1.224 0-2.256.348-3.096 1.044-.816.696-1.224 1.548-1.224 2.556 0 .048-.072.072-.216.072-.12 0-.18-.024-.18-.072l.036-3.672-.036-1.908a43.811 43.811 0 01-.072-2.196c0-.048.072-.072.216-.072.144 0 .216.024.216.072 0 .912.42 1.668 1.26 2.268.84.6 1.884.9 3.132.9h4.14c-.168-3.048-.9-5.472-2.196-7.272-1.296-1.824-2.988-2.736-5.076-2.736-1.512 0-2.928.516-4.248 1.548-1.296 1.032-2.436 2.58-3.42 4.644-.024.072-.096.096-.216.072-.12-.024-.18-.06-.18-.108l.54-4.896c.048-.288.096-.48.144-.576.048-.096.18-.192.396-.288a20.997 20.997 0 016.948-1.152zm30.868 22.464c.072 0 .108.072.108.216 0 .144-.036.216-.108.216h-4.284c-.24 0-.456-.06-.648-.18s-.468-.42-.828-.9c-.36-.48-.864-1.272-1.512-2.376-.624-1.032-1.116-1.776-1.476-2.232-.336-.456-.684-.768-1.044-.936-.336-.192-.768-.288-1.296-.288h-.072v3.996c0 .72.048 1.26.144 1.62.096.336.276.564.54.684.288.12.708.18 1.26.18.072 0 .108.072.108.216 0 .144-.036.216-.108.216-.672 0-1.188-.012-1.548-.036l-2.016-.036-2.088.036a27.72 27.72 0 01-1.62.036c-.072 0-.108-.072-.108-.216 0-.144.036-.216.108-.216.576 0 .996-.06 1.26-.18.288-.12.48-.348.576-.684.096-.36.144-.9.144-1.62V76.02c0-.72-.048-1.248-.144-1.584-.096-.36-.276-.6-.54-.72s-.684-.18-1.26-.18c-.048 0-.072-.072-.072-.216 0-.144.024-.216.072-.216.672 0 1.188.012 1.548.036l2.124.036 2.304-.036a30.58 30.58 0 011.692-.036c.048 0 .072.072.072.216 0 .144-.024.216-.072.216-.696 0-1.212.06-1.548.18-.312.12-.528.36-.648.72s-.18.912-.18 1.656v3.384l1.728-.072c.48 0 1.02-.648 1.62-1.944.912-1.848 1.704-3.096 2.376-3.744.696-.648 1.44-.972 2.232-.972.696 0 1.212.168 1.548.504.36.312.54.732.54 1.26 0 .552-.156.996-.468 1.332-.312.336-.768.504-1.368.504-.36 0-.732-.096-1.116-.288-.384-.192-.732-.288-1.044-.288-.384 0-.708.132-.972.396-.24.24-.564.768-.972 1.584-.336.696-.696 1.26-1.08 1.692.696.048 1.26.192 1.692.432.432.216.828.54 1.188.972.36.408.84 1.068 1.44 1.98.432.72.696 1.14.792 1.26.552.936 1.008 1.584 1.368 1.944.384.336.936.516 1.656.54zm7.847.9c-1.488 0-2.796-.336-3.924-1.008a7.1 7.1 0 01-2.556-2.772 8.276 8.276 0 01-.9-3.816c0-1.56.396-2.88 1.188-3.96a7.148 7.148 0 013.024-2.448 9.103 9.103 0 013.78-.828c1.488 0 2.784.348 3.888 1.044a6.838 6.838 0 012.52 2.772c.6 1.128.9 2.34.9 3.636 0 1.44-.36 2.724-1.08 3.852-.72 1.104-1.692 1.968-2.916 2.592-1.2.624-2.508.936-3.924.936zm1.08-.756c.936 0 1.644-.456 2.124-1.368.504-.936.756-2.268.756-3.996 0-1.68-.216-3.12-.648-4.32-.432-1.2-.996-2.1-1.692-2.7-.696-.624-1.44-.936-2.232-.936-1.92 0-2.88 1.716-2.88 5.148 0 1.608.204 3.036.612 4.284.408 1.224.96 2.184 1.656 2.88.696.672 1.464 1.008 2.304 1.008zm9.153-5.256c-.047.024-.096-.084-.144-.324a7.604 7.604 0 01-.035-.756c0-.576.035-.864.108-.864l9.395-1.692c.048-.024.084.072.108.288a3.146 3.146 0 010 1.332c-.024.192-.06.3-.108.324l-9.324 1.692zm34.569 5.112c.216 0 .336.024.36.072.048.024.072.144.072.36 0 .384-.036.84-.108 1.368a44.733 44.733 0 00-.288 4.932c0 .12-.072.18-.216.18-.144 0-.216-.06-.216-.18 0-1.992-.612-3.54-1.836-4.644C100.745 87.552 98.993 87 96.713 87h-9.072c-2.184 0-3.732.48-4.644 1.44-.912.96-1.368 2.58-1.368 4.86 0 .12-.072.18-.216.18-.144 0-.216-.06-.216-.18 0-1.632-.072-2.928-.216-3.888a47.938 47.938 0 00-.216-1.584c-.096-.624-.144-.972-.144-1.044 0-.216.012-.336.036-.36.048-.048.18-.072.396-.072 1.776 0 3.312-1.08 4.608-3.24 1.32-2.184 2.316-4.752 2.988-7.704.672-2.952 1.008-5.484 1.008-7.596 0-.888-.336-1.584-1.008-2.088-.672-.528-1.632-.792-2.88-.792-.072 0-.108-.072-.108-.216 0-.144.036-.216.108-.216h17.748c.072 0 .108.072.108.216 0 .144-.036.216-.108.216-.816 0-1.416.072-1.8.216-.384.12-.648.348-.792.684-.144.336-.216.864-.216 1.584v16.668c0 .936.048 1.548.144 1.836.096.288.348.468.756.54.432.072 1.296.108 2.592.108zm-7.488-19.08c0-.744-.036-1.236-.108-1.476-.048-.264-.18-.42-.396-.468-.216-.072-.648-.108-1.296-.108h-2.088c-.624 0-1.068.06-1.332.18-.24.12-.408.336-.504.648-.072.288-.144.828-.216 1.62 0 .168-.024.492-.072.972a61.173 61.173 0 01-1.944 10.116c-.912 3.312-2.256 5.664-4.032 7.056h10.98c.528 0 .828-.132.9-.396.072-.288.108-.828.108-1.62V67.488zm17.214 19.98c-1.488 0-2.796-.336-3.924-1.008a7.1 7.1 0 01-2.556-2.772 8.276 8.276 0 01-.9-3.816c0-1.56.396-2.88 1.188-3.96a7.148 7.148 0 013.024-2.448 9.103 9.103 0 013.78-.828c1.488 0 2.784.348 3.888 1.044a6.838 6.838 0 012.52 2.772c.6 1.128.9 2.34.9 3.636 0 1.44-.36 2.724-1.08 3.852-.72 1.104-1.692 1.968-2.916 2.592-1.2.624-2.508.936-3.924.936zm1.08-.756c.936 0 1.644-.456 2.124-1.368.504-.936.756-2.268.756-3.996 0-1.68-.216-3.12-.648-4.32-.432-1.2-.996-2.1-1.692-2.7-.696-.624-1.44-.936-2.232-.936-1.92 0-2.88 1.716-2.88 5.148 0 1.608.204 3.036.612 4.284.408 1.224.96 2.184 1.656 2.88.696.672 1.464 1.008 2.304 1.008zm27.873-.144c.072 0 .108.072.108.216 0 .144-.036.216-.108.216-.696 0-1.248-.012-1.656-.036l-1.98-.036-1.872.036a20.25 20.25 0 01-1.368.036c-.048 0-.072-.072-.072-.216 0-.144.024-.216.072-.216.6 0 1.008-.108 1.224-.324.24-.24.36-.708.36-1.404a6.35 6.35 0 00-.036-.756l-.684-8.388-4.14 10.476c-.024.072-.108.108-.252.108-.144 0-.24-.036-.288-.108l-4.968-10.08-.036-.072-.396 7.236c-.048 1.08.12 1.908.504 2.484.408.552.996.828 1.764.828.072 0 .108.072.108.216 0 .144-.036.216-.108.216-.504 0-.888-.012-1.152-.036l-1.476-.036-1.512.036a15.76 15.76 0 01-1.224.036c-.072 0-.108-.072-.108-.216 0-.144.036-.216.108-.216 1.464 0 2.256-1.104 2.376-3.312l.468-8.424c-.336-.504-.672-.84-1.008-1.008-.336-.192-.744-.288-1.224-.288-.048 0-.072-.072-.072-.216 0-.144.024-.216.072-.216l2.16.036 1.584-.036c.552 0 .972.108 1.26.324.312.216.672.72 1.08 1.512l3.348 6.912 3.096-7.848c.096-.288.24-.504.432-.648.216-.168.432-.252.648-.252l2.124.036 2.304-.036c.048 0 .072.072.072.216 0 .144-.024.216-.072.216-.792 0-1.368.168-1.728.504-.336.312-.468.936-.396 1.872l.684 8.172c.072.768.144 1.32.216 1.656.096.312.264.528.504.648.264.12.684.18 1.26.18z" fill="#2C3E50"/><path d="M142 59L71.5 29 1 59m26 45v17h92v-17" stroke="#3B5364" stroke-width="2" stroke-linecap="round" stroke-linejoin="round"/><path d="M104.892 31.585l.594-.643c.411-.413.821-.828 1.262-1.207.427-.396.891-.75 1.345-1.109.47-.343.937-.687 1.43-.992.478-.327.991-.596 1.489-.889.517-.256 1.021-.54 1.551-.764l.79-.347c.264-.11.536-.206.804-.309.533-.215 1.082-.378 1.625-.554.544-.179 1.104-.3 1.653-.452.555-.13 1.115-.236 1.671-.355l.02-.005.03-.004c.554-.075 1.205-.247 1.798-.443.605-.2 1.201-.438 1.781-.717a17.738 17.738 0 003.292-2.028c.262-.193.513-.4.757-.612a12.6 12.6 0 00.726-.65c.241-.22.475-.447.697-.686.228-.234.457-.467.667-.717.438-.484.839-1.002 1.241-1.52.381-.534.765-1.065 1.107-1.627.366-.546.667-1.133.994-1.703.294-.591.612-1.17.869-1.78.132-.302.273-.601.4-.906l.363-.923c.255-.612.44-1.249.661-1.873.206-.631.377-1.272.567-1.908l.473-1.935.39-1.956.318-1.971s-5.96 5.19-15.712 6.276c-19.281 2.147-19.534 16.547-19.534 16.547-.126 4.578.808 8.09 2.287 10.786.323-.467.67-.918 1.028-1.357.188-.222.372-.449.566-.667z" fill="#2C3E50"/><path d="M136.257 0l-.232 1.984-.309 1.977-.39 1.963c-.163.647-.308 1.3-.488 1.944-.195.638-.356 1.292-.587 1.92l-.327.95c-.115.314-.244.624-.367.936-.234.63-.531 1.234-.805 1.848-.308.597-.592 1.21-.942 1.787-.327.59-.697 1.155-1.066 1.722-.391.55-.783 1.105-1.217 1.626-.208.27-.435.522-.661.775-.221.259-.454.506-.694.747-.235.245-.478.485-.732.712-.247.235-.502.463-.767.678-.518.446-1.07.853-1.635 1.24-.568.384-1.155.741-1.766 1.06a16.49 16.49 0 01-1.887.855c-.662.246-1.292.454-2.054.591l.05-.008c-.527.138-1.056.262-1.578.408-.517.17-1.042.305-1.549.497-.507.188-1.019.363-1.51.587-.247.109-.496.208-.741.322l-.723.357c-.486.229-.943.514-1.411.771-.449.292-.914.56-1.341.881-.443.299-.857.635-1.273.966-.401.348-.812.688-1.185 1.067-.388.362-.745.756-1.102 1.147l-.514.606c-.167.206-.324.419-.487.627a19.888 19.888 0 00-1.367 2.074c4.847 6.345 12.865 6.833 12.865 6.833 18.321-.245 19.466-16.529 19.466-16.529 1.566-12.756-.674-25.92-.674-25.92z" fill="#2C3E50"/><path d="M105.368 34.49c-.336.477-.652.97-.947 1.474-.301.502-.575 1.02-.833 1.546a21.621 21.621 0 00-1.299 3.278 14.944 14.944 0 00-.436 1.779l-.01.058a1.26 1.26 0 002.5.321l.002-.022c.057-.443.172-.979.299-1.473a19.477 19.477 0 011.034-2.97c.212-.483.438-.96.69-1.426a19.5 19.5 0 01.331-.599 15.962 15.962 0 01-1.302-2.007l-.029.04z" fill="#2C3E50"/></svg>